<svg width="1093" height="381" viewBox="0 0 1093 381" fill="none" xmlns="http://www.w3.org/2000/svg">
<path fill-rule="evenodd" clip-rule="evenodd" d="M1092.51 0H0.50943V242.648C0.50943 250.771 13.7903 257.356 30.1725 257.356H34.0644C50.4466 257.356 63.7275 263.941 63.7275 272.063C63.7275 277.318 69.3819 282.173 78.559 284.8L166.697 310.03C175.874 312.657 187.182 312.657 196.36 310.03L284.497 284.8C293.676 282.173 299.329 277.318 299.329 272.063C299.329 263.941 312.61 257.356 328.992 257.356H399.044C415.428 257.356 428.709 263.941 428.709 272.063C428.709 277.318 434.361 282.173 443.54 284.8L531.678 310.03C540.855 312.657 552.164 312.657 561.341 310.03L649.478 284.8C658.658 282.173 664.31 277.318 664.31 272.063C664.31 263.941 677.593 257.356 693.975 257.356H764.754C781.137 257.356 794.417 263.941 794.417 272.063C794.417 277.318 800.072 282.173 809.249 284.8L897.387 310.03C906.564 312.657 917.872 312.657 927.05 310.03L1015.19 284.8C1024.37 282.173 1030.02 277.318 1030.02 272.063C1030.02 263.941 1043.3 257.356 1059.68 257.356H1062.85C1079.23 257.356 1092.51 250.771 1092.51 242.648V0Z" fill="#F9F9F9"/>
<path fill-rule="evenodd" clip-rule="evenodd" d="M1092.51 0H0.50943V242.648C0.50943 250.771 13.7903 257.356 30.1725 257.356H34.0644C50.4466 257.356 63.7275 263.941 63.7275 272.063C63.7275 277.318 69.3819 282.173 78.559 284.8L166.697 310.03C175.874 312.657 187.182 312.657 196.36 310.03L284.497 284.8C293.676 282.173 299.329 277.318 299.329 272.063C299.329 263.941 312.61 257.356 328.992 257.356H399.044C415.428 257.356 428.709 263.941 428.709 272.063C428.709 277.318 434.361 282.173 443.54 284.8L531.678 310.03C540.855 312.657 552.164 312.657 561.341 310.03L649.478 284.8C658.658 282.173 664.31 277.318 664.31 272.063C664.31 263.941 677.593 257.356 693.975 257.356H764.754C781.137 257.356 794.417 263.941 794.417 272.063C794.417 277.318 800.072 282.173 809.249 284.8L897.387 310.03C906.564 312.657 917.872 312.657 927.05 310.03L1015.19 284.8C1024.37 282.173 1030.02 277.318 1030.02 272.063C1030.02 263.941 1043.3 257.356 1059.68 257.356H1062.85C1079.23 257.356 1092.51 250.771 1092.51 242.648V0Z" fill="url(#paint0_linear)"/>
<path fill-rule="evenodd" clip-rule="evenodd" d="M635.18 212.753V141.547C635.18 131.206 629.665 121.652 620.71 116.48L559.059 80.8778C550.105 75.7074 539.073 75.7074 530.121 80.8778L468.468 116.48C459.516 121.652 454 131.206 454 141.547V212.753C454 223.093 459.516 232.649 468.468 237.82L530.121 273.422C539.073 278.594 550.105 278.594 559.059 273.422L620.71 237.82C629.665 232.649 635.18 223.093 635.18 212.753Z" fill="#3490CF"/>
<path d="M551.915 139.797C550.743 139.797 549.794 138.847 549.794 137.676V124.257C549.794 122.051 547.999 120.256 545.792 120.256H516.992C514.786 120.256 512.991 122.051 512.991 124.257V137.676C512.991 138.847 512.041 139.797 510.87 139.797C509.698 139.797 508.749 138.847 508.749 137.676V124.257C508.749 119.711 512.447 116.013 516.992 116.013H545.792C550.338 116.013 554.036 119.711 554.036 124.257V137.676C554.036 138.847 553.087 139.797 551.915 139.797Z" fill="#2B4D66"/>
<path d="M581.311 203.699H489.543C485.086 203.699 481.473 200.087 481.473 195.63V148.385H581.311V203.699Z" fill="white"/>
<path d="M481.473 172.72C482.793 174.074 484.628 174.898 486.624 174.898H581.311V148.385H481.473V172.72Z" fill="#B57AD2"/>
<path d="M582.008 132.019H480.777C476.415 132.019 473.191 136.081 474.18 140.328L479.615 163.677C480.374 166.936 483.278 169.241 486.624 169.241H581.874L588.605 140.328C589.594 136.081 586.369 132.019 582.008 132.019V132.019Z" fill="white"/>
<path d="M582.008 132.019H574.795C579.157 132.019 582.382 136.081 581.393 140.328L574.661 169.242H581.874L588.605 140.328C589.594 136.081 586.369 132.019 582.008 132.019Z" fill="#B57AD2"/>
<circle cx="576.934" cy="201.349" r="37.6372" fill="#B57AD2"/>
<path d="M576.934 163.712C575.937 163.712 574.948 163.752 573.97 163.828C593.37 165.34 608.642 181.561 608.642 201.349C608.642 221.138 593.37 237.359 573.97 238.871C574.948 238.947 575.936 238.987 576.934 238.987C597.721 238.987 614.571 222.136 614.571 201.35C614.571 180.563 597.721 163.712 576.934 163.712V163.712Z" fill="#B57AD2"/>
<circle cx="576.934" cy="201.349" r="28.0734" fill="#F4FBFF"/>
<path d="M576.934 173.276C575.633 173.276 574.354 173.367 573.1 173.538C586.79 175.408 597.339 187.146 597.339 201.349C597.339 215.553 586.79 227.291 573.1 229.161C574.354 229.333 575.633 229.423 576.934 229.423C592.439 229.423 605.008 216.854 605.008 201.349C605.007 185.845 592.439 173.276 576.934 173.276V173.276Z" fill="#DAF1F4"/>
<path d="M576.934 184.037C575.762 184.037 574.813 183.087 574.813 181.916V180.944C574.813 179.773 575.763 178.823 576.934 178.823C578.106 178.823 579.055 179.773 579.055 180.944V181.916C579.055 183.087 578.106 184.037 576.934 184.037Z" fill="#365E7D"/>
<path d="M590.676 189.729C590.133 189.729 589.59 189.522 589.175 189.108C588.347 188.279 588.347 186.936 589.175 186.108L589.863 185.42C590.691 184.592 592.034 184.592 592.863 185.42C593.691 186.249 593.691 187.592 592.863 188.421L592.176 189.108C591.761 189.522 591.218 189.729 590.676 189.729Z" fill="#365E7D"/>
<path d="M597.339 203.471H596.368C595.196 203.471 594.246 202.521 594.246 201.349C594.246 200.178 595.196 199.228 596.368 199.228H597.339C598.511 199.228 599.461 200.178 599.461 201.349C599.461 202.521 598.511 203.471 597.339 203.471Z" fill="#365E7D"/>
<path d="M557.5 203.471H556.529C555.357 203.471 554.408 202.521 554.408 201.349C554.408 200.178 555.357 199.228 556.529 199.228H557.5C558.672 199.228 559.622 200.178 559.622 201.349C559.622 202.521 558.672 203.471 557.5 203.471Z" fill="#365E7D"/>
<path d="M591.363 217.899C590.82 217.899 590.277 217.692 589.863 217.278L589.176 216.591C588.347 215.763 588.347 214.42 589.175 213.591C590.004 212.762 591.347 212.762 592.175 213.591L592.862 214.278C593.691 215.106 593.691 216.449 592.863 217.278C592.449 217.692 591.906 217.899 591.363 217.899Z" fill="#365E7D"/>
<path d="M576.934 223.876C575.762 223.876 574.813 222.926 574.813 221.755V220.783C574.813 219.612 575.763 218.662 576.934 218.662C578.106 218.662 579.055 219.612 579.055 220.783V221.755C579.055 222.926 578.106 223.876 576.934 223.876Z" fill="#365E7D"/>
<path d="M562.506 217.899C561.963 217.899 561.42 217.692 561.005 217.278C560.177 216.449 560.177 215.107 561.005 214.278L561.692 213.591C562.521 212.763 563.864 212.763 564.693 213.591C565.521 214.419 565.521 215.762 564.693 216.591L564.006 217.278C563.591 217.692 563.048 217.899 562.506 217.899Z" fill="#365E7D"/>
<path d="M563.193 189.729C562.649 189.729 562.106 189.522 561.692 189.107L561.005 188.42C560.177 187.592 560.177 186.249 561.006 185.42C561.834 184.592 563.177 184.592 564.006 185.421L564.693 186.108C565.521 186.936 565.521 188.279 564.692 189.108C564.278 189.522 563.735 189.729 563.193 189.729Z" fill="#365E7D"/>
<path d="M582.716 203.471H576.934C575.762 203.471 574.813 202.521 574.813 201.35V190.154C574.813 188.982 575.763 188.032 576.934 188.032C578.106 188.032 579.055 188.982 579.055 190.154V199.228H582.716C583.888 199.228 584.837 200.178 584.837 201.349C584.837 202.521 583.888 203.471 582.716 203.471Z" fill="#2B4D66"/>
<path d="M537.26 176.945H525.525C523.788 176.945 522.379 175.536 522.379 173.799V164.66C522.379 162.923 523.787 161.514 525.525 161.514H537.26C538.997 161.514 540.406 162.922 540.406 164.66V173.799C540.406 175.536 538.997 176.945 537.26 176.945Z" fill="#B57AD2"/>
<path d="M537.26 161.514H531.866C533.603 161.514 535.012 162.922 535.012 164.66V173.799C535.012 175.536 533.604 176.945 531.866 176.945H537.26C538.997 176.945 540.406 175.536 540.406 173.799V164.66C540.406 162.923 538.997 161.514 537.26 161.514Z" fill="#D1B4E0"/>
<path fill-rule="evenodd" clip-rule="evenodd" d="M1000.18 212.753V141.547C1000.18 131.206 994.665 121.652 985.71 116.48L924.059 80.8778C915.107 75.7074 904.073 75.7074 895.121 80.8778L833.47 116.48C824.518 121.652 819 131.206 819 141.547V212.753C819 223.093 824.518 232.649 833.47 237.82L895.121 273.422C904.073 278.594 915.107 278.594 924.059 273.422L985.71 237.82C994.665 232.649 1000.18 223.093 1000.18 212.753Z" fill="#B57AD2"/>
<path d="M903.809 211.667C910.799 211.667 916.695 207.079 918.706 200.753C920.151 201.495 921.674 202.022 923.255 202.276V202.295L931.143 227.286L917.476 225.333L907.714 235.095L903.809 222.405L900.393 211.296V211.276C901.486 211.53 902.638 211.667 903.809 211.667Z" fill="white"/>
<path d="M890.143 225.333L876.476 227.286L884.364 202.295V202.276C885.945 202.022 887.468 201.495 888.913 200.753C890.592 206.024 894.946 210.085 900.393 211.276V211.296L903.81 222.405L899.905 235.095L890.143 225.333Z" fill="white"/>
<path d="M931.924 178.476C928.937 173.693 927.238 168.07 927.238 162.135V149.19H930.87H931.807C934.872 149.19 937.879 148.663 940.71 147.668C942.525 142.22 941.276 135.992 936.941 131.678C932.002 126.738 924.583 125.801 918.706 128.866C916.695 122.54 910.799 117.952 903.81 117.952C896.82 117.952 890.924 122.54 888.913 128.866C883.036 125.801 875.617 126.738 870.678 131.678C865.738 136.617 864.801 144.036 867.866 149.913C861.54 151.924 856.952 157.82 856.952 164.81C856.952 171.799 861.54 177.695 867.866 179.706C864.801 185.583 865.738 193.002 870.678 197.941C874.407 201.67 879.541 203.115 884.364 202.276C885.945 202.022 887.468 201.495 888.913 200.753C890.592 206.024 894.946 210.085 900.393 211.276C901.486 211.53 902.638 211.667 903.81 211.667C910.799 211.667 916.695 207.079 918.706 200.753C920.151 201.495 921.674 202.022 923.255 202.276C928.078 203.115 933.212 201.67 936.941 197.941C939.675 195.208 941.178 191.733 941.471 188.18C937.586 185.68 934.325 182.361 931.924 178.476Z" fill="white"/>
<path d="M899.573 169.71L897.952 174.572L892.661 175.333C892.622 175.333 892.603 175.333 892.564 175.352C887.8 176.075 884.286 180.175 884.286 184.997V189.195C877.14 183.474 872.571 174.689 872.571 164.81C872.571 147.551 886.55 133.572 903.81 133.572C915.368 133.572 925.461 139.858 930.87 149.191H927.238V162.135C927.238 168.07 928.937 173.693 931.924 178.476H931.904C929.874 182.654 926.926 186.325 923.333 189.175V184.997C923.333 180.175 919.819 176.075 915.055 175.352C915.016 175.333 914.997 175.333 914.958 175.333L909.667 174.572L908.046 169.71C910.76 168.382 912.771 165.883 913.376 162.857L915.329 160.065C916.734 158.074 917.476 155.692 917.476 153.252C917.476 149.972 916.149 147.004 914.001 144.856C911.853 142.709 908.886 141.381 905.606 141.381H902.013C895.453 141.381 890.143 146.692 890.143 153.252C890.143 155.692 890.885 158.074 892.29 160.065L894.243 162.857C894.633 164.771 895.57 166.489 896.898 167.816L899.573 169.71Z" fill="white"/>
<path d="M915.329 160.065L913.376 162.857C913.513 162.232 913.571 161.568 913.571 160.905V158.347C913.571 156.453 912.185 154.813 910.311 154.501L906.504 153.876C904.883 153.603 903.439 152.841 902.326 151.728L902.306 151.748L897.738 153.583C895.512 154.462 894.048 156.609 894.048 159.011V160.905C894.048 161.568 894.106 162.232 894.243 162.857L892.29 160.065C890.885 158.074 890.143 155.692 890.143 153.251C890.143 146.691 895.453 141.381 902.013 141.381H905.606C908.886 141.381 911.853 142.708 914.001 144.856C916.149 147.004 917.476 149.971 917.476 153.251C917.476 155.692 916.734 158.074 915.329 160.065Z" fill="white"/>
<path d="M923.333 184.997V189.175C917.984 193.49 911.209 196.048 903.81 196.048C896.43 196.048 889.635 193.49 884.286 189.195V184.997C884.286 180.175 887.8 176.075 892.564 175.352L897.952 184.333L903.81 178.476L909.667 184.333L915.055 175.352C919.819 176.075 923.333 180.175 923.333 184.997Z" fill="white"/>
<path d="M897.952 174.572L903.81 178.476L897.952 184.333L892.564 175.352C892.603 175.333 892.622 175.333 892.661 175.333L897.952 174.572Z" fill="white"/>
<path d="M915.055 175.352L909.667 184.333L903.81 178.476L909.667 174.572L914.958 175.333C914.997 175.333 915.016 175.333 915.055 175.352Z" fill="white"/>
<path d="M903.81 170.667C905.332 170.667 906.777 170.315 908.046 169.71L909.667 174.571L903.81 178.476L897.952 174.571L899.573 169.71L903.81 170.667Z" fill="white"/>
<path d="M913.376 162.857C912.771 165.883 910.76 168.382 908.046 169.71C906.777 170.315 905.332 170.667 903.81 170.667L899.573 169.71L896.898 167.816C895.57 166.489 894.633 164.77 894.243 162.857C894.106 162.232 894.048 161.569 894.048 160.905V159.011C894.048 156.609 895.512 154.462 897.738 153.583L902.306 151.748L902.326 151.729C903.439 152.841 904.883 153.603 906.504 153.876L910.311 154.501C912.185 154.813 913.571 156.453 913.571 158.347V160.905C913.571 161.569 913.513 162.232 913.376 162.857Z" fill="white"/>
<path d="M974.095 149.19V162.135C974.095 169.222 971.674 175.879 967.535 181.17C963.396 186.481 957.539 190.425 950.667 192.143C947.328 191.303 944.243 189.956 941.471 188.179C937.586 185.68 934.325 182.361 931.924 178.476C928.937 173.693 927.238 168.07 927.238 162.135V149.19H930.87H931.807C934.872 149.19 937.879 148.663 940.71 147.668C944.419 146.34 947.836 144.212 950.667 141.381C955.665 146.379 962.44 149.19 969.527 149.19H974.095Z" fill="white"/>
<path fill-rule="evenodd" clip-rule="evenodd" d="M952.047 140.001C956.715 144.669 962.92 147.238 969.521 147.238H976.048V162.137C976.048 177.254 965.805 190.372 951.141 194.035L950.667 194.154L950.194 194.035C947.617 193.392 945.188 192.442 942.916 191.255C942.139 194.289 940.563 197.084 938.324 199.324C934.95 202.697 930.499 204.425 925.977 204.441L933.941 229.658L918.167 227.405L906.803 238.77L903.81 229.043L900.818 238.77L889.454 227.405L873.68 229.658L881.642 204.443C877.12 204.427 872.669 202.697 869.295 199.324C864.369 194.398 862.858 187.174 865.244 180.784C859.038 177.953 855 171.778 855 164.81C855 157.841 859.038 151.666 865.244 148.835C862.858 142.445 864.369 135.221 869.295 130.295C874.225 125.368 881.447 123.856 887.835 126.244C890.666 120.038 896.841 116 903.81 116C910.778 116 916.953 120.038 919.784 126.244C926.174 123.858 933.398 125.369 938.324 130.295C942.102 134.073 943.861 139.226 943.357 144.384C945.512 143.242 947.512 141.775 949.286 140.001L950.667 138.62L952.047 140.001ZM892.376 224.806L898.993 231.421L901.767 222.405L898.845 212.906C894.005 211.493 889.969 208.053 887.835 203.375C887.197 203.613 886.547 203.783 885.894 203.945L879.272 224.914L888.673 223.57L892.197 213L895.9 214.236L892.376 224.806ZM928.347 224.914L918.946 223.57L915.422 213L911.719 214.236L915.243 224.806L908.626 231.421L903.132 213.57C903.234 213.574 903.335 213.584 903.436 213.594L903.436 213.594C903.56 213.607 903.684 213.619 903.81 213.619C910.778 213.619 916.953 209.582 919.784 203.375C920.422 203.613 921.072 203.783 921.725 203.945L928.347 224.914ZM919.602 199.029C924.915 201.792 931.328 200.796 935.563 196.563C937.597 194.527 938.88 191.893 939.337 189.074C936.569 187.141 934.122 184.818 932.088 182.168C926.076 192.002 915.52 198 903.81 198C885.508 198 870.619 183.111 870.619 164.81C870.619 146.508 885.508 131.619 903.81 131.619C915.235 131.619 925.901 137.58 931.947 147.23C934.405 147.219 936.809 146.85 939.095 146.149C940.315 141.459 939.023 136.518 935.563 133.056C931.328 128.821 924.915 127.831 919.602 130.59L917.541 131.662L916.84 129.446C915.036 123.739 909.797 119.905 903.81 119.905C897.822 119.905 892.583 123.739 890.779 129.446L890.078 131.662L888.017 130.59C882.708 127.835 876.291 128.823 872.056 133.056C867.823 137.291 866.831 143.704 869.59 149.017L870.662 151.078L868.446 151.779C862.739 153.583 858.905 158.822 858.905 164.81C858.905 170.799 862.739 176.036 868.446 177.836L870.662 178.537L869.59 180.598C866.831 185.911 867.821 192.326 872.056 196.561C876.291 200.794 882.704 201.792 888.017 199.027L890.078 197.957L890.779 200.171C892.583 205.88 897.822 209.714 903.81 209.714C909.797 209.714 915.036 205.88 916.84 200.173L917.541 197.959L919.602 199.029ZM929.671 178.527C928.452 180.825 926.973 182.918 925.264 184.765C925.151 179.072 920.885 174.202 915.227 173.394L911.137 172.81L910.395 170.585C912.748 168.98 914.475 166.535 915.174 163.693L916.93 161.188C918.564 158.851 919.429 156.11 919.429 153.257C919.429 145.631 913.226 139.429 905.6 139.429H902.017C894.393 139.429 888.19 145.631 888.19 153.257C888.19 156.11 889.055 158.851 890.691 161.188L892.445 163.693C893.144 166.537 894.872 168.98 897.224 170.585L896.482 172.81L892.392 173.394C886.761 174.199 882.515 179.027 882.363 184.685C877.515 179.456 874.524 172.484 874.524 164.81C874.524 148.661 887.661 135.524 903.81 135.524C913.05 135.524 921.732 139.942 927.226 147.238H925.286V162.137C925.286 168.06 926.877 173.666 929.671 178.527ZM899.227 150.873C898.946 150.362 898.708 149.821 898.519 149.253L898.054 147.857L901.758 146.623L902.222 148.019C902.911 150.081 904.671 151.586 906.816 151.943L910.629 152.58C912.699 152.923 914.343 154.315 915.086 156.157C915.372 155.225 915.524 154.251 915.524 153.257C915.524 147.785 911.072 143.333 905.602 143.333H902.019C896.547 143.333 892.095 147.785 892.095 153.257C892.095 154.312 892.267 155.342 892.587 156.326C893.333 154.286 894.897 152.607 897.005 151.764L899.227 150.873ZM896 159.013C896 157.406 896.964 155.983 898.454 155.387L901.939 153.993C903.163 154.905 904.606 155.534 906.172 155.793L909.985 156.43C910.932 156.588 911.619 157.398 911.619 158.355V160.901C911.619 165.208 908.116 168.712 903.81 168.714C899.503 168.712 896 165.208 896 160.901V159.013ZM911.875 176.86L910.129 176.61L906.875 178.781L909.28 181.186L911.875 176.86ZM903.81 176.129L900.276 173.773L900.797 172.209C901.76 172.469 902.765 172.619 903.806 172.619H903.813C904.854 172.619 905.86 172.469 906.822 172.211L907.343 173.775L903.81 176.129ZM898.339 181.186L900.744 178.781L897.49 176.61L895.744 176.86L898.339 181.186ZM897.564 187.483L903.81 181.237L910.055 187.483L915.998 177.574C919.144 178.611 921.381 181.59 921.381 184.991V188.267C916.424 191.989 910.321 194.095 903.81 194.095C897.212 194.095 891.139 191.877 886.238 188.183V184.991C886.238 181.59 888.476 178.611 891.621 177.574L897.564 187.483ZM950.667 190.126C963.336 186.737 972.143 175.296 972.143 162.137V151.143H969.521C962.51 151.143 955.885 148.64 950.667 144.056C945.446 148.64 938.822 151.143 931.813 151.143H929.19V162.137C929.19 175.296 937.998 186.737 950.667 190.126Z" fill="#3490CF"/>
<path d="M946.762 173.763L940.333 167.334L937.572 170.095L946.762 179.284L967.666 158.38L964.905 155.62L946.762 173.763Z" fill="#3490CF"/>
<path fill-rule="evenodd" clip-rule="evenodd" d="M270.18 211.753V140.547C270.18 130.206 264.665 120.652 255.71 115.48L194.059 79.8778C185.105 74.7074 174.073 74.7074 165.121 79.8778L103.47 115.48C94.5157 120.652 89 130.206 89 140.547V211.753C89 222.093 94.5157 231.649 103.47 236.82L165.121 272.422C174.073 277.594 185.105 277.594 194.059 272.422L255.71 236.82C264.665 231.649 270.18 222.093 270.18 211.753Z" fill="#B57AD2"/>
<path fill-rule="evenodd" clip-rule="evenodd" d="M166.127 131.109L169.853 132.863L171.594 129.274L167.888 127.438L166.127 131.109ZM177.245 136.37L173.539 134.616L175.198 130.946L178.904 132.699L177.245 136.37ZM180.911 138.123L184.617 139.877L186.378 136.207L182.672 134.453L180.911 138.123ZM192.009 143.384L188.303 141.631L190.064 137.96L193.77 139.714L192.009 143.384ZM195.674 145.138L199.401 146.892L201.121 143.221L197.435 141.468L195.674 145.138ZM203.107 148.645L206.793 150.399L208.554 146.729L204.868 144.975L203.107 148.645Z" fill="#5A5A60"/>
<path fill-rule="evenodd" clip-rule="evenodd" d="M201.817 201.642L203.865 205.211L207.448 203.171L205.401 199.603L201.817 201.642ZM196.698 209.146L194.65 205.557L198.234 203.518L200.282 207.087L196.698 209.146ZM187.484 209.493L189.531 213.061L193.135 211.022L191.088 207.454L187.484 209.493ZM182.344 216.956L180.296 213.387L183.88 211.348L185.927 214.937L182.344 216.956ZM173.15 217.364L175.198 221.034L178.802 218.893L176.754 215.325L173.15 217.364ZM165.942 221.279L167.99 224.868L171.573 222.808L169.526 219.24L165.942 221.279Z" fill="#5A5A60"/>
<path d="M179.317 181.844L181.078 178.162L184.775 179.915L183.015 183.597L179.317 181.844Z" fill="#5A5A60"/>
<path d="M149.742 167.813L151.502 164.131L155.2 165.884L153.439 169.566L149.742 167.813Z" fill="#5A5A60"/>
<path d="M157.143 171.32L158.904 167.638L162.602 169.391L160.841 173.073L157.143 171.32Z" fill="#5A5A60"/>
<path d="M186.719 185.351L188.48 181.669L192.177 183.422L190.417 187.104L186.719 185.351Z" fill="#5A5A60"/>
<path d="M186.995 166.158L190.583 164.192L192.557 167.765L188.969 169.731L186.995 166.158Z" fill="#5A5A60"/>
<path d="M151.114 185.798L154.702 183.832L156.676 187.405L153.088 189.371L151.114 185.798Z" fill="#5A5A60"/>
<path d="M168.338 176.377L169.997 172.911L166.29 171.157L164.529 174.828L168.092 176.52L165.471 177.947L167.437 181.516L171.041 179.558L169.055 175.99L168.338 176.377Z" fill="#5A5A60"/>
<path d="M179.836 170.09L183.424 168.124L185.398 171.697L181.81 173.663L179.836 170.09Z" fill="#5A5A60"/>
<path d="M158.279 181.892L161.868 179.927L163.841 183.501L160.252 185.466L158.279 181.892Z" fill="#5A5A60"/>
<path d="M176.242 172.054L172.659 174.012L173.375 175.317L171.921 178.335L175.628 180.089L177.389 176.418L177.061 176.255L178.208 175.623L176.242 172.054Z" fill="#5A5A60"/>
<path fill-rule="evenodd" clip-rule="evenodd" d="M166.565 135.065L166.749 136.574C166.993 138.497 166.993 140.442 166.749 142.365L166.565 143.874L159.918 145.097C159.619 146.04 159.237 146.954 158.777 147.83L162.569 153.437L161.651 154.62C160.457 156.135 159.088 157.504 157.574 158.698L156.391 159.616L150.825 155.782C149.95 156.243 149.036 156.625 148.093 156.924L146.87 163.572L145.361 163.755C143.439 164 141.493 164 139.571 163.755L138.062 163.572L136.839 156.924C135.896 156.625 134.982 156.243 134.107 155.782L128.5 159.575L127.317 158.658C125.803 157.463 124.434 156.094 123.24 154.579L122.322 153.397L126.155 147.83C125.695 146.954 125.313 146.04 125.014 145.097L118.367 143.874L118.183 142.365C117.939 140.442 117.939 138.497 118.183 136.574L118.367 135.065L125.014 133.841C125.313 132.899 125.695 131.985 126.155 131.109L122.363 125.501L123.281 124.319C124.475 122.804 125.844 121.435 127.358 120.241L128.541 119.323L134.107 123.156C134.982 122.696 135.896 122.314 136.839 122.015L138.062 115.367L139.571 115.184C141.493 114.939 143.439 114.939 145.361 115.184L146.87 115.367L148.093 122.015C149.036 122.314 149.95 122.696 150.825 123.156L156.432 119.364L157.615 120.281C159.129 121.476 160.498 122.845 161.692 124.36L162.61 125.542L158.777 131.109C159.237 131.985 159.619 132.899 159.918 133.841L166.565 135.065ZM142.466 145.587C145.844 145.587 148.583 142.848 148.583 139.469C148.583 136.091 145.844 133.352 142.466 133.352C139.088 133.352 136.35 136.091 136.35 139.469C136.35 142.848 139.088 145.587 142.466 145.587Z" fill="white"/>
<path fill-rule="evenodd" clip-rule="evenodd" d="M239.963 171.769L240.147 173.278C240.391 175.201 240.391 177.146 240.147 179.069L239.963 180.578L233.317 181.802C233.017 182.744 232.635 183.658 232.175 184.534L235.967 190.142L235.05 191.324C233.855 192.839 232.486 194.208 230.972 195.402L229.789 196.32L224.223 192.486C223.348 192.947 222.434 193.329 221.491 193.628L220.268 200.276L218.759 200.459C216.837 200.704 214.891 200.704 212.969 200.459L211.46 200.276L210.237 193.628C209.294 193.329 208.38 192.947 207.505 192.486L201.898 196.279L200.716 195.362C199.201 194.167 197.832 192.798 196.638 191.283L195.72 190.101L199.553 184.534C199.093 183.658 198.711 182.744 198.412 181.802L191.765 180.578L191.582 179.069C191.337 177.146 191.337 175.201 191.582 173.278L191.765 171.769L198.412 170.546C198.711 169.603 199.093 168.689 199.553 167.813L195.761 162.206L196.679 161.023C197.873 159.508 199.242 158.139 200.756 156.945L201.939 156.027L207.505 159.861C208.38 159.4 209.294 159.018 210.237 158.719L211.46 152.071L212.969 151.888C214.891 151.643 216.837 151.643 218.759 151.888L220.268 152.071L221.491 158.719C222.434 159.018 223.348 159.4 224.223 159.861L229.83 156.068L231.013 156.985C232.527 158.18 233.896 159.549 235.09 161.064L236.008 162.246L232.175 167.813C232.635 168.689 233.017 169.603 233.317 170.546L239.963 171.769ZM215.864 182.291C219.242 182.291 221.981 179.552 221.981 176.174C221.981 172.795 219.242 170.056 215.864 170.056C212.486 170.056 209.748 172.795 209.748 176.174C209.748 179.552 212.486 182.291 215.864 182.291Z" fill="white"/>
<path fill-rule="evenodd" clip-rule="evenodd" d="M166.565 208.473L166.749 209.982C166.993 211.905 166.993 213.851 166.749 215.773L166.565 217.282L159.918 218.506C159.619 219.448 159.237 220.362 158.777 221.238L162.569 226.846L161.651 228.028C160.457 229.543 159.088 230.912 157.574 232.107L156.391 233.024L150.825 229.191C149.95 229.651 149.036 230.033 148.093 230.333L146.87 236.98L145.361 237.164C143.439 237.408 141.493 237.408 139.571 237.164L138.062 236.98L136.839 230.333C135.896 230.033 134.982 229.651 134.107 229.191L128.5 232.983L127.317 232.066C125.803 230.871 124.434 229.502 123.24 227.988L122.322 226.805L126.155 221.238C125.695 220.362 125.313 219.448 125.014 218.506L118.367 217.282L118.183 215.773C117.939 213.851 117.939 211.905 118.183 209.982L118.367 208.473L125.014 207.25C125.313 206.307 125.695 205.393 126.155 204.517L122.363 198.91L123.281 197.727C124.475 196.212 125.844 194.843 127.358 193.649L128.541 192.731L134.107 196.565C134.982 196.104 135.896 195.722 136.839 195.423L138.062 188.775L139.571 188.592C141.493 188.347 143.439 188.347 145.361 188.592L146.87 188.775L148.093 195.423C149.036 195.722 149.95 196.104 150.825 196.565L156.432 192.772L157.615 193.69C159.129 194.884 160.498 196.253 161.692 197.768L162.61 198.95L158.777 204.517C159.237 205.393 159.619 206.307 159.918 207.25L166.565 208.473ZM142.466 218.995C145.844 218.995 148.583 216.256 148.583 212.878C148.583 209.499 145.844 206.76 142.466 206.76C139.088 206.76 136.35 209.499 136.35 212.878C136.35 216.256 139.088 218.995 142.466 218.995Z" fill="white"/>
<path d="M69.5 371.6V362.72H66.36V371.6C66.36 372.667 66.1467 373.453 65.72 373.96C65.2933 374.453 64.52 374.7 63.4 374.7C62.76 374.7 62.2467 374.613 61.86 374.44C61.4867 374.253 61.1933 374.02 60.98 373.74C60.7667 373.447 60.6267 373.113 60.56 372.74C60.4933 372.367 60.46 371.987 60.46 371.6V362.72H57.32V371.6C57.32 373.547 57.8467 374.987 58.9 375.92C59.9667 376.853 61.4667 377.32 63.4 377.32C65.3067 377.32 66.8 376.853 67.88 375.92C68.96 374.973 69.5 373.533 69.5 371.6ZM71.9042 366.66V377H74.7442V371.58C74.7442 370.527 74.9176 369.773 75.2642 369.32C75.6109 368.853 76.1709 368.62 76.9442 368.62C77.6242 368.62 78.0976 368.833 78.3642 369.26C78.6309 369.673 78.7642 370.307 78.7642 371.16V377H81.6042V370.64C81.6042 370 81.5442 369.42 81.4242 368.9C81.3176 368.367 81.1242 367.92 80.8442 367.56C80.5642 367.187 80.1776 366.9 79.6842 366.7C79.2042 366.487 78.5842 366.38 77.8242 366.38C77.2242 366.38 76.6376 366.52 76.0642 366.8C75.4909 367.067 75.0242 367.5 74.6642 368.1H74.6042V366.66H71.9042ZM91.0997 371.8C91.0997 372.227 91.0597 372.64 90.9797 373.04C90.8997 373.44 90.7664 373.8 90.5797 374.12C90.393 374.427 90.1397 374.673 89.8197 374.86C89.513 375.047 89.1264 375.14 88.6597 375.14C88.2197 375.14 87.8397 375.047 87.5197 374.86C87.213 374.66 86.953 374.407 86.7397 374.1C86.5397 373.78 86.393 373.42 86.2997 373.02C86.2064 372.62 86.1597 372.22 86.1597 371.82C86.1597 371.393 86.1997 370.987 86.2797 370.6C86.373 370.2 86.513 369.847 86.6997 369.54C86.8997 369.233 87.1597 368.987 87.4797 368.8C87.7997 368.613 88.193 368.52 88.6597 368.52C89.1264 368.52 89.513 368.613 89.8197 368.8C90.1264 368.987 90.373 369.233 90.5597 369.54C90.7597 369.833 90.8997 370.18 90.9797 370.58C91.0597 370.967 91.0997 371.373 91.0997 371.8ZM91.1397 375.68V377H93.8397V362.72H90.9997V367.92H90.9597C90.6397 367.413 90.1997 367.033 89.6397 366.78C89.093 366.513 88.513 366.38 87.8997 366.38C87.1397 366.38 86.473 366.533 85.8997 366.84C85.3264 367.133 84.8464 367.527 84.4597 368.02C84.0864 368.513 83.7997 369.087 83.5997 369.74C83.413 370.38 83.3197 371.047 83.3197 371.74C83.3197 372.46 83.413 373.153 83.5997 373.82C83.7997 374.487 84.0864 375.08 84.4597 375.6C84.8464 376.107 85.333 376.513 85.9197 376.82C86.5064 377.113 87.1864 377.26 87.9597 377.26C88.6397 377.26 89.2464 377.14 89.7797 376.9C90.3264 376.647 90.7664 376.24 91.0997 375.68H91.1397ZM102.946 370.72H98.3263C98.3396 370.52 98.3796 370.293 98.4463 370.04C98.5263 369.787 98.6529 369.547 98.8263 369.32C99.0129 369.093 99.2529 368.907 99.5463 368.76C99.8529 368.6 100.233 368.52 100.686 368.52C101.38 368.52 101.893 368.707 102.226 369.08C102.573 369.453 102.813 370 102.946 370.72ZM98.3263 372.52H105.786C105.84 371.72 105.773 370.953 105.586 370.22C105.4 369.487 105.093 368.833 104.666 368.26C104.253 367.687 103.72 367.233 103.066 366.9C102.413 366.553 101.646 366.38 100.766 366.38C99.9796 366.38 99.2596 366.52 98.6063 366.8C97.9663 367.08 97.4129 367.467 96.9463 367.96C96.4796 368.44 96.1196 369.013 95.8663 369.68C95.6129 370.347 95.4863 371.067 95.4863 371.84C95.4863 372.64 95.6063 373.373 95.8463 374.04C96.0996 374.707 96.4529 375.28 96.9063 375.76C97.3596 376.24 97.9129 376.613 98.5663 376.88C99.2196 377.133 99.9529 377.26 100.766 377.26C101.94 377.26 102.94 376.993 103.766 376.46C104.593 375.927 105.206 375.04 105.606 373.8H103.106C103.013 374.12 102.76 374.427 102.346 374.72C101.933 375 101.44 375.14 100.866 375.14C100.066 375.14 99.4529 374.933 99.0263 374.52C98.5996 374.107 98.3663 373.44 98.3263 372.52ZM107.471 366.66V377H110.311V372.34C110.311 371.873 110.357 371.44 110.451 371.04C110.544 370.64 110.697 370.293 110.911 370C111.137 369.693 111.431 369.453 111.791 369.28C112.151 369.107 112.591 369.02 113.111 369.02C113.284 369.02 113.464 369.033 113.651 369.06C113.837 369.073 113.997 369.093 114.131 369.12V366.48C113.904 366.413 113.697 366.38 113.511 366.38C113.151 366.38 112.804 366.433 112.471 366.54C112.137 366.647 111.824 366.8 111.531 367C111.237 367.187 110.977 367.42 110.751 367.7C110.524 367.967 110.344 368.26 110.211 368.58H110.171V366.66H107.471ZM117.444 373.64H114.744C114.771 374.333 114.924 374.913 115.204 375.38C115.497 375.833 115.864 376.2 116.304 376.48C116.757 376.76 117.271 376.96 117.844 377.08C118.417 377.2 119.004 377.26 119.604 377.26C120.191 377.26 120.764 377.2 121.324 377.08C121.897 376.973 122.404 376.78 122.844 376.5C123.284 376.22 123.637 375.853 123.904 375.4C124.184 374.933 124.324 374.36 124.324 373.68C124.324 373.2 124.231 372.8 124.044 372.48C123.857 372.147 123.611 371.873 123.304 371.66C122.997 371.433 122.644 371.253 122.244 371.12C121.857 370.987 121.457 370.873 121.044 370.78C120.644 370.687 120.251 370.6 119.864 370.52C119.477 370.44 119.131 370.353 118.824 370.26C118.531 370.153 118.291 370.02 118.104 369.86C117.917 369.7 117.824 369.493 117.824 369.24C117.824 369.027 117.877 368.86 117.984 368.74C118.091 368.607 118.217 368.507 118.364 368.44C118.524 368.373 118.697 368.333 118.884 368.32C119.071 368.293 119.244 368.28 119.404 368.28C119.911 368.28 120.351 368.38 120.724 368.58C121.097 368.767 121.304 369.133 121.344 369.68H124.044C123.991 369.04 123.824 368.513 123.544 368.1C123.277 367.673 122.937 367.333 122.524 367.08C122.111 366.827 121.637 366.647 121.104 366.54C120.584 366.433 120.044 366.38 119.484 366.38C118.924 366.38 118.377 366.433 117.844 366.54C117.311 366.633 116.831 366.807 116.404 367.06C115.977 367.3 115.631 367.633 115.364 368.06C115.111 368.487 114.984 369.033 114.984 369.7C114.984 370.153 115.077 370.54 115.264 370.86C115.451 371.167 115.697 371.427 116.004 371.64C116.311 371.84 116.657 372.007 117.044 372.14C117.444 372.26 117.851 372.367 118.264 372.46C119.277 372.673 120.064 372.887 120.624 373.1C121.197 373.313 121.484 373.633 121.484 374.06C121.484 374.313 121.424 374.527 121.304 374.7C121.184 374.86 121.031 374.993 120.844 375.1C120.671 375.193 120.471 375.267 120.244 375.32C120.031 375.36 119.824 375.38 119.624 375.38C119.344 375.38 119.071 375.347 118.804 375.28C118.551 375.213 118.324 375.113 118.124 374.98C117.924 374.833 117.757 374.653 117.624 374.44C117.504 374.213 117.444 373.947 117.444 373.64ZM129.586 366.66V363.56H126.746V366.66H125.026V368.56H126.746V374.66C126.746 375.18 126.833 375.6 127.006 375.92C127.18 376.24 127.413 376.487 127.706 376.66C128.013 376.833 128.36 376.947 128.746 377C129.146 377.067 129.566 377.1 130.006 377.1C130.286 377.1 130.573 377.093 130.866 377.08C131.16 377.067 131.426 377.04 131.666 377V374.8C131.533 374.827 131.393 374.847 131.246 374.86C131.1 374.873 130.946 374.88 130.786 374.88C130.306 374.88 129.986 374.8 129.826 374.64C129.666 374.48 129.586 374.16 129.586 373.68V368.56H131.666V366.66H129.586ZM132.898 369.84C132.938 369.173 133.104 368.62 133.398 368.18C133.691 367.74 134.064 367.387 134.518 367.12C134.971 366.853 135.478 366.667 136.038 366.56C136.611 366.44 137.184 366.38 137.758 366.38C138.278 366.38 138.804 366.42 139.338 366.5C139.871 366.567 140.358 366.707 140.798 366.92C141.238 367.133 141.598 367.433 141.878 367.82C142.158 368.193 142.298 368.693 142.298 369.32V374.7C142.298 375.167 142.324 375.613 142.378 376.04C142.431 376.467 142.524 376.787 142.658 377H139.778C139.724 376.84 139.678 376.68 139.638 376.52C139.611 376.347 139.591 376.173 139.578 376C139.124 376.467 138.591 376.793 137.978 376.98C137.364 377.167 136.738 377.26 136.098 377.26C135.604 377.26 135.144 377.2 134.718 377.08C134.291 376.96 133.918 376.773 133.598 376.52C133.278 376.267 133.024 375.947 132.838 375.56C132.664 375.173 132.578 374.713 132.578 374.18C132.578 373.593 132.678 373.113 132.878 372.74C133.091 372.353 133.358 372.047 133.678 371.82C134.011 371.593 134.384 371.427 134.798 371.32C135.224 371.2 135.651 371.107 136.078 371.04C136.504 370.973 136.924 370.92 137.338 370.88C137.751 370.84 138.118 370.78 138.438 370.7C138.758 370.62 139.011 370.507 139.198 370.36C139.384 370.2 139.471 369.973 139.458 369.68C139.458 369.373 139.404 369.133 139.298 368.96C139.204 368.773 139.071 368.633 138.898 368.54C138.738 368.433 138.544 368.367 138.318 368.34C138.104 368.3 137.871 368.28 137.618 368.28C137.058 368.28 136.618 368.4 136.298 368.64C135.978 368.88 135.791 369.28 135.738 369.84H132.898ZM139.458 371.94C139.338 372.047 139.184 372.133 138.998 372.2C138.824 372.253 138.631 372.3 138.418 372.34C138.218 372.38 138.004 372.413 137.778 372.44C137.551 372.467 137.324 372.5 137.098 372.54C136.884 372.58 136.671 372.633 136.458 372.7C136.258 372.767 136.078 372.86 135.918 372.98C135.771 373.087 135.651 373.227 135.558 373.4C135.464 373.573 135.418 373.793 135.418 374.06C135.418 374.313 135.464 374.527 135.558 374.7C135.651 374.873 135.778 375.013 135.938 375.12C136.098 375.213 136.284 375.28 136.498 375.32C136.711 375.36 136.931 375.38 137.158 375.38C137.718 375.38 138.151 375.287 138.458 375.1C138.764 374.913 138.991 374.693 139.138 374.44C139.284 374.173 139.371 373.907 139.398 373.64C139.438 373.373 139.458 373.16 139.458 373V371.94ZM144.502 366.66V377H147.342V371.58C147.342 370.527 147.515 369.773 147.862 369.32C148.209 368.853 148.769 368.62 149.542 368.62C150.222 368.62 150.695 368.833 150.962 369.26C151.229 369.673 151.362 370.307 151.362 371.16V377H154.202V370.64C154.202 370 154.142 369.42 154.022 368.9C153.915 368.367 153.722 367.92 153.442 367.56C153.162 367.187 152.775 366.9 152.282 366.7C151.802 366.487 151.182 366.38 150.422 366.38C149.822 366.38 149.235 366.52 148.662 366.8C148.089 367.067 147.622 367.5 147.262 368.1H147.202V366.66H144.502ZM163.697 371.8C163.697 372.227 163.657 372.64 163.577 373.04C163.497 373.44 163.364 373.8 163.177 374.12C162.991 374.427 162.737 374.673 162.417 374.86C162.111 375.047 161.724 375.14 161.257 375.14C160.817 375.14 160.437 375.047 160.117 374.86C159.811 374.66 159.551 374.407 159.337 374.1C159.137 373.78 158.991 373.42 158.897 373.02C158.804 372.62 158.757 372.22 158.757 371.82C158.757 371.393 158.797 370.987 158.877 370.6C158.971 370.2 159.111 369.847 159.297 369.54C159.497 369.233 159.757 368.987 160.077 368.8C160.397 368.613 160.791 368.52 161.257 368.52C161.724 368.52 162.111 368.613 162.417 368.8C162.724 368.987 162.971 369.233 163.157 369.54C163.357 369.833 163.497 370.18 163.577 370.58C163.657 370.967 163.697 371.373 163.697 371.8ZM163.737 375.68V377H166.437V362.72H163.597V367.92H163.557C163.237 367.413 162.797 367.033 162.237 366.78C161.691 366.513 161.111 366.38 160.497 366.38C159.737 366.38 159.071 366.533 158.497 366.84C157.924 367.133 157.444 367.527 157.057 368.02C156.684 368.513 156.397 369.087 156.197 369.74C156.011 370.38 155.917 371.047 155.917 371.74C155.917 372.46 156.011 373.153 156.197 373.82C156.397 374.487 156.684 375.08 157.057 375.6C157.444 376.107 157.931 376.513 158.517 376.82C159.104 377.113 159.784 377.26 160.557 377.26C161.237 377.26 161.844 377.14 162.377 376.9C162.924 376.647 163.364 376.24 163.697 375.68H163.737ZM177.59 369.18V365.16H181.03C181.75 365.16 182.29 365.32 182.65 365.64C183.01 365.947 183.19 366.447 183.19 367.14C183.19 367.86 183.01 368.38 182.65 368.7C182.29 369.02 181.75 369.18 181.03 369.18H177.59ZM174.45 362.72V377H177.59V371.42H180.73C181.517 371.42 182.084 371.593 182.43 371.94C182.777 372.287 183.004 372.833 183.11 373.58C183.19 374.153 183.25 374.753 183.29 375.38C183.33 376.007 183.437 376.547 183.61 377H186.75C186.604 376.8 186.49 376.56 186.41 376.28C186.344 375.987 186.29 375.68 186.25 375.36C186.224 375.04 186.204 374.727 186.19 374.42C186.177 374.113 186.164 373.847 186.15 373.62C186.124 373.26 186.07 372.9 185.99 372.54C185.924 372.18 185.81 371.853 185.65 371.56C185.49 371.253 185.284 370.993 185.03 370.78C184.777 370.553 184.457 370.387 184.07 370.28V370.24C184.87 369.92 185.444 369.453 185.79 368.84C186.15 368.227 186.33 367.5 186.33 366.66C186.33 366.113 186.23 365.607 186.03 365.14C185.844 364.66 185.564 364.24 185.19 363.88C184.83 363.52 184.39 363.24 183.87 363.04C183.364 362.827 182.79 362.72 182.15 362.72H174.45ZM195.544 370.72H190.924C190.937 370.52 190.977 370.293 191.044 370.04C191.124 369.787 191.251 369.547 191.424 369.32C191.611 369.093 191.851 368.907 192.144 368.76C192.451 368.6 192.831 368.52 193.284 368.52C193.977 368.52 194.491 368.707 194.824 369.08C195.171 369.453 195.411 370 195.544 370.72ZM190.924 372.52H198.384C198.437 371.72 198.371 370.953 198.184 370.22C197.997 369.487 197.691 368.833 197.264 368.26C196.851 367.687 196.317 367.233 195.664 366.9C195.011 366.553 194.244 366.38 193.364 366.38C192.577 366.38 191.857 366.52 191.204 366.8C190.564 367.08 190.011 367.467 189.544 367.96C189.077 368.44 188.717 369.013 188.464 369.68C188.211 370.347 188.084 371.067 188.084 371.84C188.084 372.64 188.204 373.373 188.444 374.04C188.697 374.707 189.051 375.28 189.504 375.76C189.957 376.24 190.511 376.613 191.164 376.88C191.817 377.133 192.551 377.26 193.364 377.26C194.537 377.26 195.537 376.993 196.364 376.46C197.191 375.927 197.804 375.04 198.204 373.8H195.704C195.611 374.12 195.357 374.427 194.944 374.72C194.531 375 194.037 375.14 193.464 375.14C192.664 375.14 192.051 374.933 191.624 374.52C191.197 374.107 190.964 373.44 190.924 372.52ZM202.468 371.84C202.468 371.413 202.508 371.007 202.588 370.62C202.682 370.22 202.828 369.867 203.028 369.56C203.228 369.24 203.488 368.987 203.808 368.8C204.128 368.613 204.522 368.52 204.988 368.52C205.428 368.52 205.802 368.62 206.108 368.82C206.428 369.02 206.682 369.28 206.868 369.6C207.055 369.92 207.188 370.28 207.268 370.68C207.362 371.08 207.408 371.48 207.408 371.88C207.408 372.307 207.362 372.72 207.268 373.12C207.188 373.507 207.048 373.853 206.848 374.16C206.662 374.453 206.408 374.693 206.088 374.88C205.782 375.053 205.395 375.14 204.928 375.14C204.462 375.14 204.068 375.047 203.748 374.86C203.442 374.673 203.188 374.427 202.988 374.12C202.802 373.8 202.668 373.447 202.588 373.06C202.508 372.66 202.468 372.253 202.468 371.84ZM210.148 380.62V366.66H207.448V367.98H207.408C207.088 367.407 206.642 367 206.068 366.76C205.508 366.507 204.908 366.38 204.268 366.38C203.482 366.38 202.795 366.533 202.208 366.84C201.635 367.147 201.155 367.56 200.768 368.08C200.382 368.587 200.095 369.173 199.908 369.84C199.722 370.507 199.628 371.193 199.628 371.9C199.628 372.9 199.768 373.747 200.048 374.44C200.328 375.12 200.682 375.673 201.108 376.1C201.535 376.513 202.002 376.813 202.508 377C203.028 377.173 203.528 377.26 204.008 377.26C204.648 377.26 205.268 377.14 205.868 376.9C206.468 376.66 206.935 376.26 207.268 375.7H207.308V380.62H210.148ZM221.995 377V366.66H219.155V372.08C219.155 373.133 218.982 373.893 218.635 374.36C218.288 374.813 217.728 375.04 216.955 375.04C216.275 375.04 215.802 374.833 215.535 374.42C215.268 373.993 215.135 373.353 215.135 372.5V366.66H212.295V373.02C212.295 373.66 212.348 374.247 212.455 374.78C212.575 375.3 212.775 375.747 213.055 376.12C213.335 376.48 213.715 376.76 214.195 376.96C214.688 377.16 215.315 377.26 216.075 377.26C216.675 377.26 217.262 377.127 217.835 376.86C218.408 376.593 218.875 376.16 219.235 375.56H219.295V377H221.995ZM227.07 365.06V362.72H224.23V365.06H227.07ZM224.23 366.66V377H227.07V366.66H224.23ZM229.307 366.66V377H232.147V372.34C232.147 371.873 232.193 371.44 232.287 371.04C232.38 370.64 232.533 370.293 232.747 370C232.973 369.693 233.267 369.453 233.627 369.28C233.987 369.107 234.427 369.02 234.947 369.02C235.12 369.02 235.3 369.033 235.487 369.06C235.673 369.073 235.833 369.093 235.967 369.12V366.48C235.74 366.413 235.533 366.38 235.347 366.38C234.987 366.38 234.64 366.433 234.307 366.54C233.973 366.647 233.66 366.8 233.367 367C233.073 367.187 232.813 367.42 232.587 367.7C232.36 367.967 232.18 368.26 232.047 368.58H232.007V366.66H229.307ZM243.688 370.72H239.068C239.082 370.52 239.122 370.293 239.188 370.04C239.268 369.787 239.395 369.547 239.568 369.32C239.755 369.093 239.995 368.907 240.288 368.76C240.595 368.6 240.975 368.52 241.428 368.52C242.122 368.52 242.635 368.707 242.968 369.08C243.315 369.453 243.555 370 243.688 370.72ZM239.068 372.52H246.528C246.582 371.72 246.515 370.953 246.328 370.22C246.142 369.487 245.835 368.833 245.408 368.26C244.995 367.687 244.462 367.233 243.808 366.9C243.155 366.553 242.388 366.38 241.508 366.38C240.722 366.38 240.002 366.52 239.348 366.8C238.708 367.08 238.155 367.467 237.688 367.96C237.222 368.44 236.862 369.013 236.608 369.68C236.355 370.347 236.228 371.067 236.228 371.84C236.228 372.64 236.348 373.373 236.588 374.04C236.842 374.707 237.195 375.28 237.648 375.76C238.102 376.24 238.655 376.613 239.308 376.88C239.962 377.133 240.695 377.26 241.508 377.26C242.682 377.26 243.682 376.993 244.508 376.46C245.335 375.927 245.948 375.04 246.348 373.8H243.848C243.755 374.12 243.502 374.427 243.088 374.72C242.675 375 242.182 375.14 241.608 375.14C240.808 375.14 240.195 374.933 239.768 374.52C239.342 374.107 239.108 373.44 239.068 372.52ZM248.293 366.66V377H251.133V371C251.133 370.493 251.206 370.087 251.353 369.78C251.499 369.46 251.673 369.22 251.873 369.06C252.086 368.887 252.299 368.773 252.513 368.72C252.739 368.653 252.919 368.62 253.053 368.62C253.506 368.62 253.846 368.7 254.073 368.86C254.313 369.007 254.479 369.207 254.573 369.46C254.679 369.713 254.739 369.993 254.753 370.3C254.766 370.593 254.773 370.893 254.773 371.2V377H257.613V371.24C257.613 370.92 257.633 370.607 257.673 370.3C257.726 369.98 257.819 369.7 257.953 369.46C258.099 369.207 258.293 369.007 258.533 368.86C258.786 368.7 259.113 368.62 259.513 368.62C259.913 368.62 260.226 368.687 260.453 368.82C260.693 368.953 260.873 369.133 260.993 369.36C261.113 369.587 261.186 369.853 261.213 370.16C261.239 370.467 261.253 370.793 261.253 371.14V377H264.093V370.08C264.093 369.413 263.999 368.847 263.813 368.38C263.626 367.9 263.366 367.513 263.033 367.22C262.699 366.927 262.299 366.713 261.833 366.58C261.366 366.447 260.859 366.38 260.313 366.38C259.593 366.38 258.966 366.553 258.433 366.9C257.913 367.247 257.499 367.647 257.193 368.1C256.913 367.46 256.499 367.013 255.953 366.76C255.419 366.507 254.826 366.38 254.173 366.38C253.493 366.38 252.886 366.527 252.353 366.82C251.833 367.113 251.386 367.527 251.013 368.06H250.973V366.66H248.293ZM273.298 370.72H268.678C268.691 370.52 268.731 370.293 268.798 370.04C268.878 369.787 269.004 369.547 269.178 369.32C269.364 369.093 269.604 368.907 269.898 368.76C270.204 368.6 270.584 368.52 271.038 368.52C271.731 368.52 272.244 368.707 272.578 369.08C272.924 369.453 273.164 370 273.298 370.72ZM268.678 372.52H276.138C276.191 371.72 276.124 370.953 275.938 370.22C275.751 369.487 275.444 368.833 275.018 368.26C274.604 367.687 274.071 367.233 273.418 366.9C272.764 366.553 271.998 366.38 271.118 366.38C270.331 366.38 269.611 366.52 268.958 366.8C268.318 367.08 267.764 367.467 267.298 367.96C266.831 368.44 266.471 369.013 266.218 369.68C265.964 370.347 265.838 371.067 265.838 371.84C265.838 372.64 265.958 373.373 266.198 374.04C266.451 374.707 266.804 375.28 267.258 375.76C267.711 376.24 268.264 376.613 268.918 376.88C269.571 377.133 270.304 377.26 271.118 377.26C272.291 377.26 273.291 376.993 274.118 376.46C274.944 375.927 275.558 375.04 275.958 373.8H273.458C273.364 374.12 273.111 374.427 272.698 374.72C272.284 375 271.791 375.14 271.218 375.14C270.418 375.14 269.804 374.933 269.378 374.52C268.951 374.107 268.718 373.44 268.678 372.52ZM277.822 366.66V377H280.662V371.58C280.662 370.527 280.836 369.773 281.182 369.32C281.529 368.853 282.089 368.62 282.862 368.62C283.542 368.62 284.016 368.833 284.282 369.26C284.549 369.673 284.682 370.307 284.682 371.16V377H287.522V370.64C287.522 370 287.462 369.42 287.342 368.9C287.236 368.367 287.042 367.92 286.762 367.56C286.482 367.187 286.096 366.9 285.602 366.7C285.122 366.487 284.502 366.38 283.742 366.38C283.142 366.38 282.556 366.52 281.982 366.8C281.409 367.067 280.942 367.5 280.582 368.1H280.522V366.66H277.822ZM293.278 366.66V363.56H290.438V366.66H288.718V368.56H290.438V374.66C290.438 375.18 290.524 375.6 290.698 375.92C290.871 376.24 291.104 376.487 291.398 376.66C291.704 376.833 292.051 376.947 292.438 377C292.838 377.067 293.258 377.1 293.698 377.1C293.978 377.1 294.264 377.093 294.558 377.08C294.851 377.067 295.118 377.04 295.358 377V374.8C295.224 374.827 295.084 374.847 294.938 374.86C294.791 374.873 294.638 374.88 294.478 374.88C293.998 374.88 293.678 374.8 293.518 374.64C293.358 374.48 293.278 374.16 293.278 373.68V368.56H295.358V366.66H293.278ZM298.909 373.64H296.209C296.236 374.333 296.389 374.913 296.669 375.38C296.962 375.833 297.329 376.2 297.769 376.48C298.222 376.76 298.736 376.96 299.309 377.08C299.882 377.2 300.469 377.26 301.069 377.26C301.656 377.26 302.229 377.2 302.789 377.08C303.362 376.973 303.869 376.78 304.309 376.5C304.749 376.22 305.102 375.853 305.369 375.4C305.649 374.933 305.789 374.36 305.789 373.68C305.789 373.2 305.696 372.8 305.509 372.48C305.322 372.147 305.076 371.873 304.769 371.66C304.462 371.433 304.109 371.253 303.709 371.12C303.322 370.987 302.922 370.873 302.509 370.78C302.109 370.687 301.716 370.6 301.329 370.52C300.942 370.44 300.596 370.353 300.289 370.26C299.996 370.153 299.756 370.02 299.569 369.86C299.382 369.7 299.289 369.493 299.289 369.24C299.289 369.027 299.342 368.86 299.449 368.74C299.556 368.607 299.682 368.507 299.829 368.44C299.989 368.373 300.162 368.333 300.349 368.32C300.536 368.293 300.709 368.28 300.869 368.28C301.376 368.28 301.816 368.38 302.189 368.58C302.562 368.767 302.769 369.133 302.809 369.68H305.509C305.456 369.04 305.289 368.513 305.009 368.1C304.742 367.673 304.402 367.333 303.989 367.08C303.576 366.827 303.102 366.647 302.569 366.54C302.049 366.433 301.509 366.38 300.949 366.38C300.389 366.38 299.842 366.433 299.309 366.54C298.776 366.633 298.296 366.807 297.869 367.06C297.442 367.3 297.096 367.633 296.829 368.06C296.576 368.487 296.449 369.033 296.449 369.7C296.449 370.153 296.542 370.54 296.729 370.86C296.916 371.167 297.162 371.427 297.469 371.64C297.776 371.84 298.122 372.007 298.509 372.14C298.909 372.26 299.316 372.367 299.729 372.46C300.742 372.673 301.529 372.887 302.089 373.1C302.662 373.313 302.949 373.633 302.949 374.06C302.949 374.313 302.889 374.527 302.769 374.7C302.649 374.86 302.496 374.993 302.309 375.1C302.136 375.193 301.936 375.267 301.709 375.32C301.496 375.36 301.289 375.38 301.089 375.38C300.809 375.38 300.536 375.347 300.269 375.28C300.016 375.213 299.789 375.113 299.589 374.98C299.389 374.833 299.222 374.653 299.089 374.44C298.969 374.213 298.909 373.947 298.909 373.64Z" fill="white"/>
<defs>
<linearGradient id="paint0_linear" x1="-208.782" y1="0" x2="-208.782" y2="427.389" gradientUnits="userSpaceOnUse">
<stop stop-color="#B57AD2" stop-opacity="0.776388"/>
<stop offset="1" stop-color="#FFF4E5" stop-opacity="0.01"/>
</linearGradient>
</defs>
</svg>
