<svg width="123" height="123" viewBox="0 0 123 123" fill="none" xmlns="http://www.w3.org/2000/svg">
<path fill-rule="evenodd" clip-rule="evenodd" d="M48.1265 16.1089L51.8533 17.8625L53.5938 14.2737L49.8875 12.4385L48.1265 16.1089ZM59.2453 21.3698L55.5391 19.6162L57.1977 15.9458L60.9039 17.6994L59.2453 21.3698ZM62.9106 23.1235L66.6169 24.8771L68.3779 21.2067L64.6716 19.453L62.9106 23.1235ZM74.009 28.3844L70.3027 26.6308L72.0637 22.9603L75.77 24.714L74.009 28.3844ZM77.6743 30.138L81.401 31.8917L83.1211 28.2213L79.4353 26.4676L77.6743 30.138ZM85.1073 33.6453L88.7931 35.399L90.5541 31.7285L86.8683 29.9749L85.1073 33.6453Z" fill="#5A5A60"/>
<path fill-rule="evenodd" clip-rule="evenodd" d="M83.8173 86.6421L85.8649 90.2106L89.4484 88.1715L87.4007 84.603L83.8173 86.6421ZM78.6981 94.1461L76.6505 90.5573L80.2339 88.5181L82.2815 92.0866L78.6981 94.1461ZM69.4837 94.4928L71.5313 98.0612L75.1352 96.0221L73.0875 92.4536L69.4837 94.4928ZM64.344 101.956L62.2964 98.3875L65.8798 96.3484L67.9274 99.9372L64.344 101.956ZM55.15 102.364L57.1977 106.034L60.8016 103.893L58.7539 100.325L55.15 102.364ZM47.9423 106.279L49.9899 109.868L53.5733 107.808L51.5257 104.24L47.9423 106.279Z" fill="#5A5A60"/>
<path d="M61.3173 66.8438L63.0778 63.1616L66.7754 64.9148L65.0149 68.5969L61.3173 66.8438Z" fill="#5A5A60"/>
<path d="M31.7417 52.813L33.5022 49.1309L37.1997 50.884L35.4393 54.5661L31.7417 52.813Z" fill="#5A5A60"/>
<path d="M39.1435 56.3201L40.904 52.6379L44.6015 54.3911L42.8411 58.0732L39.1435 56.3201Z" fill="#5A5A60"/>
<path d="M68.7194 70.3511L70.4798 66.6689L74.1774 68.4221L72.4169 72.1042L68.7194 70.3511Z" fill="#5A5A60"/>
<path d="M68.9945 51.1576L72.5825 49.1917L74.5567 52.7647L70.9687 54.7307L68.9945 51.1576Z" fill="#5A5A60"/>
<path d="M33.1136 70.798L36.7016 68.832L38.6758 72.4051L35.0878 74.371L33.1136 70.798Z" fill="#5A5A60"/>
<path d="M50.338 61.3774L51.9966 57.9109L48.2903 56.1572L46.5294 59.8276L50.0923 61.5201L47.4713 62.9475L49.437 66.516L53.0409 64.5584L51.0547 60.9899L50.338 61.3774Z" fill="#5A5A60"/>
<path d="M61.8356 55.0895L65.4236 53.1235L67.3978 56.6966L63.8098 58.6625L61.8356 55.0895Z" fill="#5A5A60"/>
<path d="M40.2789 66.8919L43.8677 64.9272L45.8406 68.5011L42.2518 70.4658L40.2789 66.8919Z" fill="#5A5A60"/>
<path d="M58.242 57.0544L54.6586 59.012L55.3753 60.317L53.9214 63.3349L57.6277 65.0886L59.3887 61.4182L59.0611 61.255L60.2078 60.6229L58.242 57.0544Z" fill="#5A5A60"/>
<path fill-rule="evenodd" clip-rule="evenodd" d="M48.565 20.0649L48.7485 21.5739C48.9932 23.4965 48.9932 25.4424 48.7485 27.365L48.565 28.8739L41.9184 30.0974C41.619 31.04 41.237 31.9543 40.7767 32.8298L44.5689 38.4374L43.6515 39.6201C42.457 41.1347 41.0881 42.5037 39.5738 43.6983L38.3913 44.6159L32.8252 40.7824C31.9498 41.2427 31.0357 41.6248 30.0932 41.9243L28.8699 48.5718L27.3612 48.7554C25.4388 49 23.4932 49 21.5709 48.7554L20.0621 48.5718L18.8388 41.9243C17.8964 41.6248 16.9822 41.2427 16.1068 40.7824L10.5 44.5752L9.31748 43.6576C7.80313 42.4629 6.43431 41.0939 5.23981 39.5793L4.32233 38.3966L8.15534 32.8298C7.69507 31.9543 7.31305 31.04 7.01359 30.0974L0.36699 28.8739L0.183495 27.365C-0.061165 25.4424 -0.061165 23.4965 0.183495 21.5739L0.36699 20.0649L7.01359 18.8415C7.31305 17.8989 7.69507 16.9846 8.15534 16.109L4.36311 10.5015L5.28058 9.31878C6.47508 7.80422 7.84391 6.43521 9.35825 5.24054L10.5408 4.32293L16.1068 8.15648C16.9822 7.69615 17.8964 7.31407 18.8388 7.01457L20.0621 0.367042L21.5709 0.183521C23.4932 -0.0611736 25.4388 -0.0611736 27.3612 0.183521L28.8699 0.367042L30.0932 7.01457C31.0357 7.31407 31.9498 7.69615 32.8252 8.15648L38.432 4.36372L39.6146 5.28132C41.1289 6.47599 42.4977 7.845 43.6922 9.35956L44.6097 10.5422L40.7767 16.109C41.237 16.9846 41.619 17.8989 41.9184 18.8415L48.565 20.0649ZM24.466 30.5868C27.8441 30.5868 30.5825 27.848 30.5825 24.4694C30.5825 21.0909 27.8441 18.3521 24.466 18.3521C21.0879 18.3521 18.3495 21.0909 18.3495 24.4694C18.3495 27.848 21.0879 30.5868 24.466 30.5868Z" fill="white"/>
<path fill-rule="evenodd" clip-rule="evenodd" d="M121.963 56.769L122.147 58.278C122.391 60.2006 122.391 62.1465 122.147 64.0691L121.963 65.578L115.317 66.8015C115.017 67.7441 114.635 68.6584 114.175 69.5339L117.967 75.1415L117.05 76.3242C115.855 77.8388 114.486 79.2078 112.972 80.4024L111.789 81.32L106.223 77.4865C105.348 77.9468 104.434 78.3289 103.491 78.6284L102.268 85.2759L100.759 85.4595C98.8369 85.7042 96.8913 85.7042 94.9689 85.4595L93.4602 85.2759L92.2369 78.6284C91.2945 78.3289 90.3803 77.9468 89.5049 77.4865L83.8981 81.2793L82.7155 80.3617C81.2012 79.167 79.8324 77.798 78.6379 76.2834L77.7204 75.1007L81.5534 69.5339C81.0931 68.6584 80.7111 67.7441 80.4117 66.8015L73.7651 65.578L73.5816 64.0691C73.3369 62.1465 73.3369 60.2006 73.5816 58.278L73.7651 56.769L80.4117 55.5456C80.7111 54.603 81.0931 53.6887 81.5534 52.8131L77.7612 47.2056L78.6787 46.0229C79.8732 44.5083 81.242 43.1393 82.7563 41.9446L83.9388 41.027L89.5049 44.8606C90.3803 44.4002 91.2945 44.0182 92.2369 43.7187L93.4602 37.0711L94.9689 36.8876C96.8913 36.6429 98.8369 36.6429 100.759 36.8876L102.268 37.0711L103.491 43.7187C104.434 44.0182 105.348 44.4002 106.223 44.8606L111.83 41.0678L113.013 41.9854C114.527 43.1801 115.896 44.5491 117.09 46.0637L118.008 47.2464L114.175 52.8131C114.635 53.6887 115.017 54.603 115.317 55.5456L121.963 56.769ZM97.8641 67.2909C101.242 67.2909 103.981 64.5521 103.981 61.1735C103.981 57.795 101.242 55.0562 97.8641 55.0562C94.486 55.0562 91.7476 57.795 91.7476 61.1735C91.7476 64.5521 94.486 67.2909 97.8641 67.2909Z" fill="white"/>
<path fill-rule="evenodd" clip-rule="evenodd" d="M48.565 93.4731L48.7485 94.9821C48.9932 96.9047 48.9932 98.8506 48.7485 100.773L48.565 102.282L41.9184 103.506C41.619 104.448 41.237 105.362 40.7767 106.238L44.5689 111.846L43.6515 113.028C42.457 114.543 41.0881 115.912 39.5738 117.107L38.3913 118.024L32.8252 114.191C31.9498 114.651 31.0357 115.033 30.0932 115.333L28.8699 121.98L27.3612 122.164C25.4388 122.408 23.4932 122.408 21.5709 122.164L20.0621 121.98L18.8388 115.333C17.8964 115.033 16.9822 114.651 16.1068 114.191L10.5 117.983L9.31748 117.066C7.80313 115.871 6.43431 114.502 5.23981 112.988L4.32233 111.805L8.15534 106.238C7.69507 105.362 7.31305 104.448 7.01359 103.506L0.36699 102.282L0.183495 100.773C-0.061165 98.8506 -0.061165 96.9047 0.183495 94.9821L0.36699 93.4731L7.01359 92.2497C7.31305 91.3071 7.69507 90.3928 8.15534 89.5173L4.36311 83.9097L5.28058 82.727C6.47508 81.2124 7.84391 79.8434 9.35825 78.6487L10.5408 77.7311L16.1068 81.5647C16.9822 81.1044 17.8964 80.7223 18.8388 80.4228L20.0621 73.7752L21.5709 73.5917C23.4932 73.347 25.4388 73.347 27.3612 73.5917L28.8699 73.7752L30.0932 80.4228C31.0357 80.7223 31.9498 81.1044 32.8252 81.5647L38.432 77.7719L39.6146 78.6895C41.1289 79.8842 42.4977 81.2532 43.6922 82.7678L44.6097 83.9505L40.7767 89.5173C41.237 90.3928 41.619 91.3071 41.9184 92.2497L48.565 93.4731ZM24.466 103.995C27.8441 103.995 30.5825 101.256 30.5825 97.8776C30.5825 94.4991 27.8441 91.7603 24.466 91.7603C21.0879 91.7603 18.3495 94.4991 18.3495 97.8776C18.3495 101.256 21.0879 103.995 24.466 103.995Z" fill="white"/>
</svg>
